<?xml version="1.0" encoding="UTF-8" standalone="no"?>
<!-- Created with Inkscape (http://www.inkscape.org/) -->
<svg
   xmlns:dc="http://purl.org/dc/elements/1.1/"
   xmlns:cc="http://web.resource.org/cc/"
   xmlns:rdf="http://www.w3.org/1999/02/22-rdf-syntax-ns#"
   xmlns:svg="http://www.w3.org/2000/svg"
   xmlns="http://www.w3.org/2000/svg"
   xmlns:sodipodi="http://inkscape.sourceforge.net/DTD/sodipodi-0.dtd"
   xmlns:inkscape="http://www.inkscape.org/namespaces/inkscape"
   width="744.09448819"
   height="1052.3622047"
   id="svg2"
   sodipodi:version="0.32"
   inkscape:version="0.41.1"
   sodipodi:docname="star.svg"
   sodipodi:docbase="/home/nsas/kay/exciting/release"
   inkscape:export-filename="/home/nsas/kay/exciting/release/star.png"
   inkscape:export-xdpi="5.7213545"
   inkscape:export-ydpi="5.7213545">
  <sodipodi:namedview
     id="base"
     pagecolor="#ffffff"
     bordercolor="#666666"
     borderopacity="1.0"
     gridtolerance="10000"
     guidetolerance="10"
     objecttolerance="10"
     inkscape:pageopacity="0.0"
     inkscape:pageshadow="2"
     inkscape:zoom="0.46751965"
     inkscape:cx="372.04723"
     inkscape:cy="526.18109"
     inkscape:document-units="px"
     inkscape:current-layer="layer1"
     inkscape:window-width="1024"
     inkscape:window-height="710"
     inkscape:window-x="0"
     inkscape:window-y="0" />
  <defs
     id="defs4" />
  <metadata
     id="metadata7">
    <rdf:RDF
       id="RDF1523">
      <cc:Work
         rdf:about=""
         id="Work1525">
        <dc:format
           id="format1527">image/svg+xml</dc:format>
        <dc:type
           rdf:resource="http://purl.org/dc/dcmitype/StillImage"
           id="type1529" />
      </cc:Work>
    </rdf:RDF>
  </metadata>
  <g
     inkscape:label="Layer 1"
     id="layer1"
     inkscape:groupmode="layer">
    <path
       style="fill:#fece32;fill-opacity:1"
       d="M 305.30744,637.85221 C 305.30744,637.85221 58.818116,735.61589 58.818116,735.61589 C 58.818116,735.61589 259.03968,531.1378 259.03968,531.1378 C 259.03968,531.1378 90.726996,429.48347 90.726996,429.48347 C 90.726996,429.48347 298.85144,446.26832 298.85144,446.26832 C 298.85144,446.26832 293.03968,247.57138 293.03968,247.57138 C 293.03968,247.57138 390.35919,395.0106 390.35919,395.0106 C 390.35919,395.0106 542.82276,242.7431 542.82276,242.7431 C 542.82276,242.7431 454.65216,458.09639 454.65216,458.09639 C 454.65216,458.09639 688.03974,478.50413 688.03974,478.50413 C 688.03974,478.50413 496.53968,558.25041 496.53968,558.25041 C 496.53968,558.25041 617.56012,743.4973 617.56012,743.4973 C 617.56012,743.4973 392.41187,610.86534 392.41187,610.86534 C 392.41187,610.86534 310.71204,804.23173 310.71204,804.23173 C 310.71204,804.23173 305.30744,637.85221 305.30744,637.85221 z "
       id="path2221"
       sodipodi:nodetypes="ccccccccccccccc" />
  </g>
</svg>
